<svg viewBox="0 0 657 648" fill="none" xmlns="http://www.w3.org/2000/svg">
<g opacity="0.2">
<path d="M442.807 0C442.807 0 500.849 140.049 252.094 234.119C116.926 285.22 13.1094 416.197 137.067 618.523C147.332 528.087 191.351 328.686 380.628 283.184C380.628 283.184 204.46 348.156 188.898 642.256C279.42 654.791 491.722 663.214 554.754 481.501C637.987 241.419 442.807 0 442.807 0Z" fill="#16C172"/>
<path d="M188.98 641.032C381.152 565.388 520.98 388.182 540.278 176.64C500.992 72.1197 442.807 0 442.807 0C442.807 0 500.849 140.049 252.094 234.119C116.926 285.22 13.1094 416.197 137.066 618.523C147.332 528.087 191.351 328.686 380.628 283.184C380.617 283.185 204.974 347.995 188.98 641.032Z" fill="#2AFC98"/>
<path d="M117.891 238.788C127.813 238.788 135.856 230.855 135.856 221.069C135.856 211.283 127.813 203.35 117.891 203.35C107.969 203.35 99.9253 211.283 99.9253 221.069C99.9253 230.855 107.969 238.788 117.891 238.788Z" fill="#16C172"/>
<path d="M174.351 216.006C181.438 216.006 187.183 210.339 187.183 203.35C187.183 196.36 181.438 190.694 174.351 190.694C167.264 190.694 161.519 196.36 161.519 203.35C161.519 210.339 167.264 216.006 174.351 216.006Z" fill="#2AFC98"/>
<path d="M162.803 114.756C180.52 114.756 194.883 100.591 194.883 83.1162C194.883 65.642 180.52 51.4762 162.803 51.4762C145.086 51.4762 130.724 65.642 130.724 83.1162C130.724 100.591 145.086 114.756 162.803 114.756Z" fill="#2AFC98"/>
<path d="M261.609 165.382C267.278 165.382 271.875 160.848 271.875 155.256C271.875 149.665 267.278 145.131 261.609 145.131C255.939 145.131 251.343 149.665 251.343 155.256C251.343 160.848 255.939 165.382 261.609 165.382Z" fill="#2AFC98"/>
<path d="M347.593 127.412C363.893 127.412 377.107 114.38 377.107 98.3032C377.107 82.2267 363.893 69.1941 347.593 69.1941C331.293 69.1941 318.08 82.2267 318.08 98.3032C318.08 114.38 331.293 127.412 347.593 127.412Z" fill="#2AFC98"/>
</g>
</svg>
