<svg viewBox="0 0 635 189" fill="none" xmlns="http://www.w3.org/2000/svg">
<path d="M171.666 135.587C167.922 135.587 162.882 137.186 156.477 141.419C144.768 149.157 130.434 152.565 117.338 152.565C106.691 152.565 96.8633 150.315 89.9225 146.311C86.4838 144.327 86.494 143.664 88.4887 143.664C92.4944 143.664 104.506 146.337 112.646 146.337C116.652 146.337 119.719 145.69 120.437 143.759C123.753 134.83 110.895 131.955 97.4507 126.724C87.6076 122.893 75.594 120.001 64.1535 120C59.3839 120 54.6715 120.503 50.2978 121.649C30.4392 126.855 16.0888 130.776 12 132.049V182.158C20.1776 179.267 29.65 176.496 35.0405 176.496C44.9326 176.496 84.9601 188.765 107.624 188.765C110.798 188.765 113.64 188.525 116.004 187.976C135.24 183.512 168.636 157.362 177.7 148.435C182.052 144.149 180.33 135.587 171.666 135.587Z" fill="#09E85E"/>
<path d="M130.5 128.5C124.8 128.5 119.6 127.15 114.9 124.45C110.3 121.65 106.6 117.9 103.8 113.2C101.1 108.4 99.75 103 99.75 97C99.75 90.7 101.1 85.2 103.8 80.5C106.6 75.7 110.35 72 115.05 69.4C119.85 66.8 125.2 65.5 131.1 65.5C135.2 65.5 139 66.05 142.5 67.15C146 68.15 149.3 69.8 152.4 72.1C153.6 73.1 154.2 74.45 154.2 76.15C154.2 77.45 153.75 78.6 152.85 79.6C152.05 80.5 150.95 80.95 149.55 80.95C148.65 80.95 147.65 80.6 146.55 79.9C144.15 78.1 141.65 76.8 139.05 76C136.45 75.2 133.85 74.8 131.25 74.8C125.15 74.8 120.1 76.85 116.1 80.95C112.2 84.95 110.25 90.3 110.25 97C110.25 103.5 112.1 108.85 115.8 113.05C119.6 117.15 124.5 119.2 130.5 119.2C134.1 119.2 137.25 118.55 139.95 117.25C142.75 115.95 144.95 114.3 146.55 112.3C148.25 110.2 149.2 108.15 149.4 106.15C149.4 104.55 148.6 103.75 147 103.75H136.35C133.05 103.75 131.4 102.2 131.4 99.1C131.4 97.7 131.85 96.6 132.75 95.8C133.65 95 134.85 94.6 136.35 94.6H153.45C155.65 94.6 157.25 95.1 158.25 96.1C159.25 97 159.75 98.8 159.75 101.5C159.75 106.4 158.5 110.9 156 115C153.6 119.1 150.2 122.4 145.8 124.9C141.4 127.3 136.3 128.5 130.5 128.5ZM179.729 104.8V123.85C179.729 125.35 179.179 126.5 178.079 127.3C177.079 128.1 175.929 128.5 174.629 128.5C173.329 128.5 172.129 128.1 171.029 127.3C170.029 126.5 169.529 125.35 169.529 123.85V88.6C169.529 86.9 170.029 85.65 171.029 84.85C172.129 83.95 173.329 83.5 174.629 83.5C175.929 83.5 177.079 83.95 178.079 84.85C179.179 85.65 179.729 86.9 179.729 88.6V89.2C181.129 87.3 182.929 85.75 185.129 84.55C187.429 83.35 189.829 82.75 192.329 82.75C193.529 82.75 194.729 82.9 195.929 83.2C197.129 83.5 198.029 84.1 198.629 85C199.229 85.9 199.529 86.9 199.529 88C199.529 89.3 199.079 90.5 198.179 91.6C197.379 92.6 196.179 93.1 194.579 93.1C193.879 93.1 193.129 93 192.329 92.8C191.629 92.6 190.729 92.5 189.629 92.5C186.729 92.5 184.329 93.6 182.429 95.8C180.629 98 179.729 101 179.729 104.8ZM225.682 128.5C218.182 128.5 212.332 126.35 208.132 122.05C203.932 117.75 201.832 111.95 201.832 104.65C201.832 98.25 203.932 93 208.132 88.9C212.432 84.8 217.932 82.75 224.632 82.75C231.132 82.75 236.332 84.65 240.232 88.45C244.132 92.15 246.082 96.75 246.082 102.25C246.082 104.45 245.482 106.1 244.282 107.2C243.182 108.3 241.732 108.85 239.932 108.85H213.832C212.832 108.85 212.482 109.4 212.782 110.5C213.582 113.3 215.182 115.5 217.582 117.1C220.082 118.6 222.882 119.35 225.982 119.35C228.282 119.35 230.482 119.05 232.582 118.45C234.782 117.85 236.682 116.95 238.282 115.75C238.782 115.35 239.432 115.15 240.232 115.15C241.332 115.15 242.332 115.65 243.232 116.65C244.132 117.55 244.582 118.65 244.582 119.95C244.582 120.55 244.482 121.15 244.282 121.75C244.082 122.35 243.632 122.95 242.932 123.55C240.332 125.45 237.532 126.75 234.532 127.45C231.632 128.15 228.682 128.5 225.682 128.5ZM234.382 101.05C234.982 101.05 235.282 100.75 235.282 100.15C235.282 97.85 234.232 95.85 232.132 94.15C230.132 92.45 227.632 91.6 224.632 91.6C222.032 91.6 219.532 92.3 217.132 93.7C214.832 95.1 213.432 96.95 212.932 99.25C212.932 99.25 212.932 99.3 212.932 99.4C212.832 99.8 212.782 100.15 212.782 100.45C212.882 100.75 213.332 100.9 214.132 100.9L234.382 101.05ZM277.391 128.5C269.891 128.5 264.041 126.35 259.841 122.05C255.641 117.75 253.541 111.95 253.541 104.65C253.541 98.25 255.641 93 259.841 88.9C264.141 84.8 269.641 82.75 276.341 82.75C282.841 82.75 288.041 84.65 291.941 88.45C295.841 92.15 297.791 96.75 297.791 102.25C297.791 104.45 297.191 106.1 295.991 107.2C294.891 108.3 293.441 108.85 291.641 108.85H265.541C264.541 108.85 264.191 109.4 264.491 110.5C265.291 113.3 266.891 115.5 269.291 117.1C271.791 118.6 274.591 119.35 277.691 119.35C279.991 119.35 282.191 119.05 284.291 118.45C286.491 117.85 288.391 116.95 289.991 115.75C290.491 115.35 291.141 115.15 291.941 115.15C293.041 115.15 294.041 115.65 294.941 116.65C295.841 117.55 296.291 118.65 296.291 119.95C296.291 120.55 296.191 121.15 295.991 121.75C295.791 122.35 295.341 122.95 294.641 123.55C292.041 125.45 289.241 126.75 286.241 127.45C283.341 128.15 280.391 128.5 277.391 128.5ZM286.091 101.05C286.691 101.05 286.991 100.75 286.991 100.15C286.991 97.85 285.941 95.85 283.841 94.15C281.841 92.45 279.341 91.6 276.341 91.6C273.741 91.6 271.241 92.3 268.841 93.7C266.541 95.1 265.141 96.95 264.641 99.25C264.641 99.25 264.641 99.3 264.641 99.4C264.541 99.8 264.491 100.15 264.491 100.45C264.591 100.75 265.041 100.9 265.841 100.9L286.091 101.05ZM344.435 128.5C343.135 128.5 341.935 128.1 340.835 127.3C339.835 126.5 339.335 125.35 339.335 123.85V104.95C339.335 100.55 338.335 97.3 336.335 95.2C334.435 93.1 331.885 92.05 328.685 92.05C324.585 92.05 321.585 93.4 319.685 96.1C317.885 98.7 316.985 101.6 316.985 104.8V123.85C316.985 125.35 316.435 126.5 315.335 127.3C314.335 128.1 313.185 128.5 311.885 128.5C310.585 128.5 309.385 128.1 308.285 127.3C307.285 126.5 306.785 125.35 306.785 123.85V88.6C306.785 86.9 307.285 85.65 308.285 84.85C309.385 83.95 310.585 83.5 311.885 83.5C313.185 83.5 314.335 83.95 315.335 84.85C316.435 85.65 316.985 86.9 316.985 88.6C318.685 86.9 320.885 85.5 323.585 84.4C326.285 83.3 328.835 82.75 331.235 82.75C336.835 82.75 341.285 84.55 344.585 88.15C347.885 91.75 349.535 97.05 349.535 104.05V123.85C349.535 125.35 348.985 126.5 347.885 127.3C346.785 128.1 345.635 128.5 344.435 128.5Z" fill="#09E85E"/>
<path d="M369 128.5C367.5 128.5 366.25 128.05 365.25 127.15C364.25 126.25 363.75 125.1 363.75 123.7V71.2C363.75 69.7 364.25 68.5 365.25 67.6C366.25 66.7 367.5 66.25 369 66.25C370.6 66.25 371.85 66.7 372.75 67.6C373.75 68.5 374.25 69.7 374.25 71.2V86.35C374.25 89.35 375.65 90.85 378.45 90.85H400.05C402.85 90.85 404.25 89.35 404.25 86.35V71.2C404.25 69.7 404.7 68.5 405.6 67.6C406.6 66.7 407.9 66.25 409.5 66.25C411.1 66.25 412.35 66.7 413.25 67.6C414.25 68.5 414.75 69.7 414.75 71.2V123.7C414.75 125.1 414.25 126.25 413.25 127.15C412.35 128.05 411.1 128.5 409.5 128.5C407.9 128.5 406.6 128.05 405.6 127.15C404.7 126.25 404.25 125.1 404.25 123.7V104.65C404.25 101.65 402.85 100.15 400.05 100.15H378.45C375.65 100.15 374.25 101.65 374.25 104.65V123.7C374.25 125.1 373.75 126.25 372.75 127.15C371.85 128.05 370.6 128.5 369 128.5ZM447.703 128.5C443.303 128.5 439.303 127.5 435.703 125.5C432.203 123.5 429.453 120.75 427.453 117.25C425.453 113.65 424.453 109.65 424.453 105.25C424.453 100.95 425.453 97.1 427.453 93.7C429.453 90.3 432.203 87.65 435.703 85.75C439.303 83.75 443.303 82.75 447.703 82.75C452.103 82.75 456.053 83.75 459.553 85.75C463.053 87.65 465.803 90.3 467.803 93.7C469.903 97.1 470.953 100.95 470.953 105.25C470.953 109.65 469.903 113.65 467.803 117.25C465.803 120.75 463.053 123.5 459.553 125.5C456.053 127.5 452.103 128.5 447.703 128.5ZM447.703 119.2C451.603 119.2 454.753 117.95 457.153 115.45C459.553 112.85 460.753 109.45 460.753 105.25C460.753 101.25 459.553 98.05 457.153 95.65C454.753 93.25 451.603 92.05 447.703 92.05C443.703 92.05 440.503 93.25 438.103 95.65C435.803 98.05 434.653 101.25 434.653 105.25C434.653 109.45 435.803 112.85 438.103 115.45C440.503 117.95 443.703 119.2 447.703 119.2ZM510.945 87.7C510.945 86.3 511.395 85.15 512.295 84.25C513.295 83.25 514.545 82.75 516.045 82.75C517.445 82.75 518.645 83.25 519.645 84.25C520.645 85.15 521.145 86.3 521.145 87.7V108.85C521.145 113.35 520.145 117.05 518.145 119.95C516.145 122.85 513.545 125 510.345 126.4C507.145 127.8 503.745 128.5 500.145 128.5C496.545 128.5 493.145 127.8 489.945 126.4C486.745 125 484.145 122.85 482.145 119.95C480.145 117.05 479.145 113.35 479.145 108.85V87.7C479.145 86.3 479.595 85.15 480.495 84.25C481.495 83.25 482.745 82.75 484.245 82.75C485.645 82.75 486.845 83.25 487.845 84.25C488.845 85.15 489.345 86.3 489.345 87.7V108.85C489.345 112.55 490.445 115.2 492.645 116.8C494.845 118.4 497.345 119.2 500.145 119.2C503.045 119.2 505.545 118.4 507.645 116.8C509.845 115.2 510.945 112.55 510.945 108.85V87.7ZM547.936 128.5C545.036 128.5 542.086 128.1 539.086 127.3C536.086 126.6 533.436 125.45 531.136 123.85C529.936 122.75 529.336 121.55 529.336 120.25C529.336 118.95 529.836 117.8 530.836 116.8C531.936 115.8 533.136 115.3 534.436 115.3C535.136 115.3 535.836 115.5 536.536 115.9C538.336 117 540.386 117.9 542.686 118.6C545.086 119.2 547.336 119.5 549.436 119.5C551.436 119.5 553.136 119.15 554.536 118.45C556.036 117.75 556.786 116.6 556.786 115C556.786 113.4 556.086 112.2 554.686 111.4C553.286 110.6 550.886 110 547.486 109.6C546.086 109.4 544.386 109.15 542.386 108.85C540.486 108.55 538.586 108 536.686 107.2C534.786 106.4 533.186 105.2 531.886 103.6C530.586 102 529.936 99.85 529.936 97.15C529.936 92.75 531.536 89.25 534.736 86.65C538.036 84.05 542.436 82.75 547.936 82.75C551.136 82.75 554.136 83.15 556.936 83.95C559.836 84.75 561.986 85.75 563.386 86.95C564.486 87.85 565.036 88.9 565.036 90.1C565.036 91.4 564.586 92.55 563.686 93.55C562.786 94.55 561.686 95.05 560.386 95.05C559.686 95.05 559.036 94.9 558.436 94.6C556.836 93.7 555.036 93.05 553.036 92.65C551.136 92.15 549.286 91.9 547.486 91.9C545.386 91.9 543.586 92.25 542.086 92.95C540.686 93.55 539.986 94.55 539.986 95.95C539.986 96.95 540.386 97.85 541.186 98.65C542.086 99.35 544.336 99.95 547.936 100.45C549.636 100.65 551.536 100.95 553.636 101.35C555.836 101.75 557.936 102.4 559.936 103.3C561.936 104.1 563.586 105.4 564.886 107.2C566.186 109 566.836 111.45 566.836 114.55C566.836 117.75 565.936 120.4 564.136 122.5C562.336 124.5 559.986 126 557.086 127C554.286 128 551.236 128.5 547.936 128.5ZM596.692 128.5C589.192 128.5 583.342 126.35 579.142 122.05C574.942 117.75 572.842 111.95 572.842 104.65C572.842 98.25 574.942 93 579.142 88.9C583.442 84.8 588.942 82.75 595.642 82.75C602.142 82.75 607.342 84.65 611.242 88.45C615.142 92.15 617.092 96.75 617.092 102.25C617.092 104.45 616.492 106.1 615.292 107.2C614.192 108.3 612.742 108.85 610.942 108.85H584.842C583.842 108.85 583.492 109.4 583.792 110.5C584.592 113.3 586.192 115.5 588.592 117.1C591.092 118.6 593.892 119.35 596.992 119.35C599.292 119.35 601.492 119.05 603.592 118.45C605.792 117.85 607.692 116.95 609.292 115.75C609.792 115.35 610.442 115.15 611.242 115.15C612.342 115.15 613.342 115.65 614.242 116.65C615.142 117.55 615.592 118.65 615.592 119.95C615.592 120.55 615.492 121.15 615.292 121.75C615.092 122.35 614.642 122.95 613.942 123.55C611.342 125.45 608.542 126.75 605.542 127.45C602.642 128.15 599.692 128.5 596.692 128.5ZM605.392 101.05C605.992 101.05 606.292 100.75 606.292 100.15C606.292 97.85 605.242 95.85 603.142 94.15C601.142 92.45 598.642 91.6 595.642 91.6C593.042 91.6 590.542 92.3 588.142 93.7C585.842 95.1 584.442 96.95 583.942 99.25C583.942 99.25 583.942 99.3 583.942 99.4C583.842 99.8 583.792 100.15 583.792 100.45C583.892 100.75 584.342 100.9 585.142 100.9L605.392 101.05Z" fill="#09E85E"/>
<path d="M310.975 154.35C310.672 154.35 310.392 154.245 310.135 154.035C309.878 153.848 309.75 153.568 309.75 153.195V140.98C309.75 140.583 309.878 140.292 310.135 140.105C310.392 139.918 310.672 139.825 310.975 139.825C311.302 139.825 311.582 139.918 311.815 140.105C312.072 140.292 312.2 140.583 312.2 140.98V153.195C312.2 153.568 312.072 153.848 311.815 154.035C311.582 154.245 311.302 154.35 310.975 154.35ZM316.537 154.35C316.234 154.35 315.954 154.257 315.697 154.07C315.464 153.883 315.347 153.615 315.347 153.265V145.04C315.347 144.643 315.464 144.352 315.697 144.165C315.954 143.955 316.234 143.85 316.537 143.85C316.771 143.85 316.992 143.908 317.202 144.025C317.412 144.118 317.564 144.293 317.657 144.55C317.704 144.69 317.727 144.818 317.727 144.935C318.077 144.562 318.532 144.258 319.092 144.025C319.652 143.792 320.201 143.675 320.737 143.675C322.254 143.675 323.374 144.282 324.097 145.495C324.377 145.005 324.832 144.585 325.462 144.235C326.116 143.862 326.909 143.675 327.842 143.675C329.102 143.675 330.106 144.095 330.852 144.935C331.599 145.775 331.972 147.012 331.972 148.645V153.265C331.972 153.615 331.844 153.883 331.587 154.07C331.331 154.257 331.062 154.35 330.782 154.35C330.479 154.35 330.199 154.257 329.942 154.07C329.709 153.883 329.592 153.615 329.592 153.265V148.855C329.592 146.848 328.846 145.845 327.352 145.845C326.512 145.845 325.906 146.067 325.532 146.51C325.159 146.953 324.926 147.478 324.832 148.085V153.265C324.832 153.615 324.704 153.883 324.447 154.07C324.191 154.257 323.922 154.35 323.642 154.35C323.339 154.35 323.059 154.257 322.802 154.07C322.569 153.883 322.452 153.615 322.452 153.265V148.855C322.452 147.828 322.254 147.07 321.857 146.58C321.461 146.09 320.924 145.845 320.247 145.845C319.244 145.845 318.567 146.16 318.217 146.79C317.891 147.397 317.727 148.073 317.727 148.82V153.265C317.727 153.615 317.599 153.883 317.342 154.07C317.109 154.257 316.841 154.35 316.537 154.35ZM340.05 154.35C339.397 154.35 338.814 154.233 338.3 154C337.787 153.79 337.344 153.498 336.97 153.125V157.99C336.97 158.34 336.842 158.608 336.585 158.795C336.352 158.982 336.084 159.075 335.78 159.075C335.477 159.075 335.197 158.982 334.94 158.795C334.707 158.608 334.59 158.34 334.59 157.99V145.04C334.59 144.643 334.707 144.352 334.94 144.165C335.197 143.955 335.477 143.85 335.78 143.85C336.06 143.85 336.317 143.943 336.55 144.13C336.784 144.293 336.924 144.538 336.97 144.865C337.344 144.515 337.787 144.235 338.3 144.025C338.814 143.792 339.397 143.675 340.05 143.675C341.077 143.675 341.975 143.908 342.745 144.375C343.539 144.818 344.157 145.437 344.6 146.23C345.044 147.023 345.265 147.922 345.265 148.925C345.265 149.952 345.044 150.885 344.6 151.725C344.157 152.542 343.539 153.183 342.745 153.65C341.975 154.117 341.077 154.35 340.05 154.35ZM339.84 152.18C340.75 152.18 341.485 151.888 342.045 151.305C342.605 150.698 342.885 149.905 342.885 148.925C342.885 147.992 342.605 147.245 342.045 146.685C341.485 146.125 340.75 145.845 339.84 145.845C338.954 145.845 338.254 146.125 337.74 146.685C337.227 147.245 336.97 147.992 336.97 148.925C336.97 149.905 337.227 150.698 337.74 151.305C338.254 151.888 338.954 152.18 339.84 152.18ZM349.754 148.82V153.265C349.754 153.615 349.625 153.883 349.369 154.07C349.135 154.257 348.867 154.35 348.564 154.35C348.26 154.35 347.98 154.257 347.724 154.07C347.49 153.883 347.374 153.615 347.374 153.265V145.04C347.374 144.643 347.49 144.352 347.724 144.165C347.98 143.955 348.26 143.85 348.564 143.85C348.867 143.85 349.135 143.955 349.369 144.165C349.625 144.352 349.754 144.643 349.754 145.04V145.18C350.08 144.737 350.5 144.375 351.014 144.095C351.55 143.815 352.11 143.675 352.694 143.675C352.974 143.675 353.254 143.71 353.534 143.78C353.814 143.85 354.024 143.99 354.164 144.2C354.304 144.41 354.374 144.643 354.374 144.9C354.374 145.203 354.269 145.483 354.059 145.74C353.872 145.973 353.592 146.09 353.219 146.09C353.055 146.09 352.88 146.067 352.694 146.02C352.53 145.973 352.32 145.95 352.064 145.95C351.387 145.95 350.827 146.207 350.384 146.72C349.964 147.233 349.754 147.933 349.754 148.82ZM360.336 154.35C359.309 154.35 358.376 154.117 357.536 153.65C356.719 153.183 356.078 152.542 355.611 151.725C355.144 150.885 354.911 149.952 354.911 148.925C354.911 147.922 355.144 147.023 355.611 146.23C356.078 145.437 356.719 144.818 357.536 144.375C358.376 143.908 359.309 143.675 360.336 143.675C361.363 143.675 362.284 143.908 363.101 144.375C363.918 144.818 364.559 145.437 365.026 146.23C365.516 147.023 365.761 147.922 365.761 148.925C365.761 149.952 365.516 150.885 365.026 151.725C364.559 152.542 363.918 153.183 363.101 153.65C362.284 154.117 361.363 154.35 360.336 154.35ZM360.336 152.18C361.246 152.18 361.981 151.888 362.541 151.305C363.101 150.698 363.381 149.905 363.381 148.925C363.381 147.992 363.101 147.245 362.541 146.685C361.981 146.125 361.246 145.845 360.336 145.845C359.403 145.845 358.656 146.125 358.096 146.685C357.559 147.245 357.291 147.992 357.291 148.925C357.291 149.905 357.559 150.698 358.096 151.305C358.656 151.888 359.403 152.18 360.336 152.18ZM371.635 154.35C371.285 154.35 370.959 154.268 370.655 154.105C370.352 153.965 370.13 153.743 369.99 153.44L366.525 145.285C366.479 145.098 366.455 144.958 366.455 144.865C366.455 144.492 366.584 144.2 366.84 143.99C367.097 143.78 367.377 143.675 367.68 143.675C367.89 143.675 368.089 143.733 368.275 143.85C368.485 143.967 368.637 144.153 368.73 144.41L371.18 150.745C371.297 150.978 371.449 151.095 371.635 151.095C371.869 151.095 372.02 150.978 372.09 150.745L374.505 144.41C374.599 144.153 374.739 143.967 374.925 143.85C375.135 143.733 375.345 143.675 375.555 143.675C375.882 143.675 376.162 143.78 376.395 143.99C376.652 144.2 376.78 144.48 376.78 144.83C376.78 144.947 376.757 145.098 376.71 145.285L373.28 153.44C373.14 153.743 372.919 153.965 372.615 154.105C372.312 154.268 371.985 154.35 371.635 154.35ZM383.069 154.35C381.319 154.35 379.954 153.848 378.974 152.845C377.994 151.842 377.504 150.488 377.504 148.785C377.504 147.292 377.994 146.067 378.974 145.11C379.977 144.153 381.26 143.675 382.824 143.675C384.34 143.675 385.554 144.118 386.464 145.005C387.374 145.868 387.829 146.942 387.829 148.225C387.829 148.738 387.689 149.123 387.409 149.38C387.152 149.637 386.814 149.765 386.394 149.765H380.304C380.07 149.765 379.989 149.893 380.059 150.15C380.245 150.803 380.619 151.317 381.179 151.69C381.762 152.04 382.415 152.215 383.139 152.215C383.675 152.215 384.189 152.145 384.679 152.005C385.192 151.865 385.635 151.655 386.009 151.375C386.125 151.282 386.277 151.235 386.464 151.235C386.72 151.235 386.954 151.352 387.164 151.585C387.374 151.795 387.479 152.052 387.479 152.355C387.479 152.495 387.455 152.635 387.409 152.775C387.362 152.915 387.257 153.055 387.094 153.195C386.487 153.638 385.834 153.942 385.134 154.105C384.457 154.268 383.769 154.35 383.069 154.35ZM385.099 147.945C385.239 147.945 385.309 147.875 385.309 147.735C385.309 147.198 385.064 146.732 384.574 146.335C384.107 145.938 383.524 145.74 382.824 145.74C382.217 145.74 381.634 145.903 381.074 146.23C380.537 146.557 380.21 146.988 380.094 147.525C380.094 147.525 380.094 147.537 380.094 147.56C380.07 147.653 380.059 147.735 380.059 147.805C380.082 147.875 380.187 147.91 380.374 147.91L385.099 147.945ZM395.884 144.865C395.884 144.492 396.013 144.2 396.269 143.99C396.526 143.78 396.806 143.675 397.109 143.675C397.599 143.675 397.949 143.92 398.159 144.41L400.889 151.095C400.959 151.282 401.088 151.375 401.274 151.375C401.461 151.375 401.589 151.293 401.659 151.13L404.004 144.445C404.191 143.932 404.553 143.675 405.089 143.675C405.416 143.675 405.708 143.78 405.964 143.99C406.244 144.2 406.384 144.457 406.384 144.76C406.384 144.877 406.349 145.04 406.279 145.25L400.924 158.305C400.738 158.818 400.376 159.075 399.839 159.075C399.536 159.075 399.244 158.97 398.964 158.76C398.708 158.55 398.579 158.293 398.579 157.99C398.579 157.757 398.614 157.593 398.684 157.5L400.399 154C399.909 153.953 399.571 153.72 399.384 153.3L395.954 145.285C395.908 145.098 395.884 144.958 395.884 144.865ZM412.528 154.35C411.502 154.35 410.568 154.117 409.728 153.65C408.912 153.183 408.27 152.542 407.803 151.725C407.337 150.885 407.103 149.952 407.103 148.925C407.103 147.922 407.337 147.023 407.803 146.23C408.27 145.437 408.912 144.818 409.728 144.375C410.568 143.908 411.502 143.675 412.528 143.675C413.555 143.675 414.477 143.908 415.293 144.375C416.11 144.818 416.752 145.437 417.218 146.23C417.708 147.023 417.953 147.922 417.953 148.925C417.953 149.952 417.708 150.885 417.218 151.725C416.752 152.542 416.11 153.183 415.293 153.65C414.477 154.117 413.555 154.35 412.528 154.35ZM412.528 152.18C413.438 152.18 414.173 151.888 414.733 151.305C415.293 150.698 415.573 149.905 415.573 148.925C415.573 147.992 415.293 147.245 414.733 146.685C414.173 146.125 413.438 145.845 412.528 145.845C411.595 145.845 410.848 146.125 410.288 146.685C409.752 147.245 409.483 147.992 409.483 148.925C409.483 149.905 409.752 150.698 410.288 151.305C410.848 151.888 411.595 152.18 412.528 152.18ZM427.285 144.83C427.285 144.503 427.39 144.235 427.6 144.025C427.833 143.792 428.125 143.675 428.475 143.675C428.801 143.675 429.081 143.792 429.315 144.025C429.548 144.235 429.665 144.503 429.665 144.83V149.765C429.665 150.815 429.431 151.678 428.965 152.355C428.498 153.032 427.891 153.533 427.145 153.86C426.398 154.187 425.605 154.35 424.765 154.35C423.925 154.35 423.131 154.187 422.385 153.86C421.638 153.533 421.031 153.032 420.565 152.355C420.098 151.678 419.865 150.815 419.865 149.765V144.83C419.865 144.503 419.97 144.235 420.18 144.025C420.413 143.792 420.705 143.675 421.055 143.675C421.381 143.675 421.661 143.792 421.895 144.025C422.128 144.235 422.245 144.503 422.245 144.83V149.765C422.245 150.628 422.501 151.247 423.015 151.62C423.528 151.993 424.111 152.18 424.765 152.18C425.441 152.18 426.025 151.993 426.515 151.62C427.028 151.247 427.285 150.628 427.285 149.765V144.83ZM434.656 148.82V153.265C434.656 153.615 434.528 153.883 434.271 154.07C434.038 154.257 433.769 154.35 433.466 154.35C433.163 154.35 432.883 154.257 432.626 154.07C432.393 153.883 432.276 153.615 432.276 153.265V145.04C432.276 144.643 432.393 144.352 432.626 144.165C432.883 143.955 433.163 143.85 433.466 143.85C433.769 143.85 434.038 143.955 434.271 144.165C434.528 144.352 434.656 144.643 434.656 145.04V145.18C434.983 144.737 435.403 144.375 435.916 144.095C436.453 143.815 437.013 143.675 437.596 143.675C437.876 143.675 438.156 143.71 438.436 143.78C438.716 143.85 438.926 143.99 439.066 144.2C439.206 144.41 439.276 144.643 439.276 144.9C439.276 145.203 439.171 145.483 438.961 145.74C438.774 145.973 438.494 146.09 438.121 146.09C437.958 146.09 437.783 146.067 437.596 146.02C437.433 145.973 437.223 145.95 436.966 145.95C436.289 145.95 435.729 146.207 435.286 146.72C434.866 147.233 434.656 147.933 434.656 148.82ZM449.052 154.35C448.749 154.35 448.469 154.257 448.212 154.07C447.979 153.883 447.862 153.615 447.862 153.265V139.965C447.862 139.568 447.979 139.277 448.212 139.09C448.469 138.88 448.749 138.775 449.052 138.775C449.355 138.775 449.624 138.88 449.857 139.09C450.114 139.277 450.242 139.568 450.242 139.965V144.97C450.615 144.573 451.105 144.258 451.712 144.025C452.342 143.792 452.925 143.675 453.462 143.675C454.675 143.675 455.702 144.095 456.542 144.935C457.405 145.775 457.837 147.012 457.837 148.645V153.265C457.837 153.615 457.709 153.883 457.452 154.07C457.195 154.257 456.927 154.35 456.647 154.35C456.344 154.35 456.064 154.257 455.807 154.07C455.574 153.883 455.457 153.615 455.457 153.265V148.855C455.457 147.828 455.224 147.07 454.757 146.58C454.314 146.09 453.719 145.845 452.972 145.845C451.969 145.845 451.257 146.16 450.837 146.79C450.44 147.397 450.242 148.073 450.242 148.82V153.265C450.242 153.615 450.114 153.883 449.857 154.07C449.624 154.257 449.355 154.35 449.052 154.35ZM465.199 154.35C464.173 154.35 463.239 154.117 462.399 153.65C461.583 153.183 460.941 152.542 460.474 151.725C460.008 150.885 459.774 149.952 459.774 148.925C459.774 147.922 460.008 147.023 460.474 146.23C460.941 145.437 461.583 144.818 462.399 144.375C463.239 143.908 464.173 143.675 465.199 143.675C466.226 143.675 467.148 143.908 467.964 144.375C468.781 144.818 469.423 145.437 469.889 146.23C470.379 147.023 470.624 147.922 470.624 148.925C470.624 149.952 470.379 150.885 469.889 151.725C469.423 152.542 468.781 153.183 467.964 153.65C467.148 154.117 466.226 154.35 465.199 154.35ZM465.199 152.18C466.109 152.18 466.844 151.888 467.404 151.305C467.964 150.698 468.244 149.905 468.244 148.925C468.244 147.992 467.964 147.245 467.404 146.685C466.844 146.125 466.109 145.845 465.199 145.845C464.266 145.845 463.519 146.125 462.959 146.685C462.423 147.245 462.154 147.992 462.154 148.925C462.154 149.905 462.423 150.698 462.959 151.305C463.519 151.888 464.266 152.18 465.199 152.18ZM479.956 144.83C479.956 144.503 480.061 144.235 480.271 144.025C480.504 143.792 480.796 143.675 481.146 143.675C481.472 143.675 481.752 143.792 481.986 144.025C482.219 144.235 482.336 144.503 482.336 144.83V149.765C482.336 150.815 482.102 151.678 481.636 152.355C481.169 153.032 480.562 153.533 479.816 153.86C479.069 154.187 478.276 154.35 477.436 154.35C476.596 154.35 475.802 154.187 475.056 153.86C474.309 153.533 473.702 153.032 473.236 152.355C472.769 151.678 472.536 150.815 472.536 149.765V144.83C472.536 144.503 472.641 144.235 472.851 144.025C473.084 143.792 473.376 143.675 473.726 143.675C474.052 143.675 474.332 143.792 474.566 144.025C474.799 144.235 474.916 144.503 474.916 144.83V149.765C474.916 150.628 475.172 151.247 475.686 151.62C476.199 151.993 476.782 152.18 477.436 152.18C478.112 152.18 478.696 151.993 479.186 151.62C479.699 151.247 479.956 150.628 479.956 149.765V144.83ZM488.587 154.35C487.91 154.35 487.222 154.257 486.522 154.07C485.822 153.907 485.204 153.638 484.667 153.265C484.387 153.008 484.247 152.728 484.247 152.425C484.247 152.122 484.364 151.853 484.597 151.62C484.854 151.387 485.134 151.27 485.437 151.27C485.6 151.27 485.764 151.317 485.927 151.41C486.347 151.667 486.825 151.877 487.362 152.04C487.922 152.18 488.447 152.25 488.937 152.25C489.404 152.25 489.8 152.168 490.127 152.005C490.477 151.842 490.652 151.573 490.652 151.2C490.652 150.827 490.489 150.547 490.162 150.36C489.835 150.173 489.275 150.033 488.482 149.94C488.155 149.893 487.759 149.835 487.292 149.765C486.849 149.695 486.405 149.567 485.962 149.38C485.519 149.193 485.145 148.913 484.842 148.54C484.539 148.167 484.387 147.665 484.387 147.035C484.387 146.008 484.76 145.192 485.507 144.585C486.277 143.978 487.304 143.675 488.587 143.675C489.334 143.675 490.034 143.768 490.687 143.955C491.364 144.142 491.865 144.375 492.192 144.655C492.449 144.865 492.577 145.11 492.577 145.39C492.577 145.693 492.472 145.962 492.262 146.195C492.052 146.428 491.795 146.545 491.492 146.545C491.329 146.545 491.177 146.51 491.037 146.44C490.664 146.23 490.244 146.078 489.777 145.985C489.334 145.868 488.902 145.81 488.482 145.81C487.992 145.81 487.572 145.892 487.222 146.055C486.895 146.195 486.732 146.428 486.732 146.755C486.732 146.988 486.825 147.198 487.012 147.385C487.222 147.548 487.747 147.688 488.587 147.805C488.984 147.852 489.427 147.922 489.917 148.015C490.43 148.108 490.92 148.26 491.387 148.47C491.854 148.657 492.239 148.96 492.542 149.38C492.845 149.8 492.997 150.372 492.997 151.095C492.997 151.842 492.787 152.46 492.367 152.95C491.947 153.417 491.399 153.767 490.722 154C490.069 154.233 489.357 154.35 488.587 154.35ZM499.963 154.35C498.213 154.35 496.848 153.848 495.868 152.845C494.888 151.842 494.398 150.488 494.398 148.785C494.398 147.292 494.888 146.067 495.868 145.11C496.872 144.153 498.155 143.675 499.718 143.675C501.235 143.675 502.448 144.118 503.358 145.005C504.268 145.868 504.723 146.942 504.723 148.225C504.723 148.738 504.583 149.123 504.303 149.38C504.047 149.637 503.708 149.765 503.288 149.765H497.198C496.965 149.765 496.883 149.893 496.953 150.15C497.14 150.803 497.513 151.317 498.073 151.69C498.657 152.04 499.31 152.215 500.033 152.215C500.57 152.215 501.083 152.145 501.573 152.005C502.087 151.865 502.53 151.655 502.903 151.375C503.02 151.282 503.172 151.235 503.358 151.235C503.615 151.235 503.848 151.352 504.058 151.585C504.268 151.795 504.373 152.052 504.373 152.355C504.373 152.495 504.35 152.635 504.303 152.775C504.257 152.915 504.152 153.055 503.988 153.195C503.382 153.638 502.728 153.942 502.028 154.105C501.352 154.268 500.663 154.35 499.963 154.35ZM501.993 147.945C502.133 147.945 502.203 147.875 502.203 147.735C502.203 147.198 501.958 146.732 501.468 146.335C501.002 145.938 500.418 145.74 499.718 145.74C499.112 145.74 498.528 145.903 497.968 146.23C497.432 146.557 497.105 146.988 496.988 147.525C496.988 147.525 496.988 147.537 496.988 147.56C496.965 147.653 496.953 147.735 496.953 147.805C496.977 147.875 497.082 147.91 497.268 147.91L501.993 147.945ZM508.082 138.425C508.479 138.425 508.794 138.588 509.027 138.915C509.284 139.218 509.354 139.58 509.237 140L507.942 142.765C507.849 142.998 507.732 143.185 507.592 143.325C507.475 143.442 507.3 143.5 507.067 143.5C506.81 143.5 506.612 143.407 506.472 143.22C506.355 143.033 506.309 142.823 506.332 142.59L506.857 139.58C506.997 138.81 507.405 138.425 508.082 138.425ZM515.35 154.35C514.673 154.35 513.985 154.257 513.285 154.07C512.585 153.907 511.966 153.638 511.43 153.265C511.15 153.008 511.01 152.728 511.01 152.425C511.01 152.122 511.126 151.853 511.36 151.62C511.616 151.387 511.896 151.27 512.2 151.27C512.363 151.27 512.526 151.317 512.69 151.41C513.11 151.667 513.588 151.877 514.125 152.04C514.685 152.18 515.21 152.25 515.7 152.25C516.166 152.25 516.563 152.168 516.89 152.005C517.24 151.842 517.415 151.573 517.415 151.2C517.415 150.827 517.251 150.547 516.925 150.36C516.598 150.173 516.038 150.033 515.245 149.94C514.918 149.893 514.521 149.835 514.055 149.765C513.611 149.695 513.168 149.567 512.725 149.38C512.281 149.193 511.908 148.913 511.605 148.54C511.301 148.167 511.15 147.665 511.15 147.035C511.15 146.008 511.523 145.192 512.27 144.585C513.04 143.978 514.066 143.675 515.35 143.675C516.096 143.675 516.796 143.768 517.45 143.955C518.126 144.142 518.628 144.375 518.955 144.655C519.211 144.865 519.34 145.11 519.34 145.39C519.34 145.693 519.235 145.962 519.025 146.195C518.815 146.428 518.558 146.545 518.255 146.545C518.091 146.545 517.94 146.51 517.8 146.44C517.426 146.23 517.006 146.078 516.54 145.985C516.096 145.868 515.665 145.81 515.245 145.81C514.755 145.81 514.335 145.892 513.985 146.055C513.658 146.195 513.495 146.428 513.495 146.755C513.495 146.988 513.588 147.198 513.775 147.385C513.985 147.548 514.51 147.688 515.35 147.805C515.746 147.852 516.19 147.922 516.68 148.015C517.193 148.108 517.683 148.26 518.15 148.47C518.616 148.657 519.001 148.96 519.305 149.38C519.608 149.8 519.76 150.372 519.76 151.095C519.76 151.842 519.55 152.46 519.13 152.95C518.71 153.417 518.161 153.767 517.485 154C516.831 154.233 516.12 154.35 515.35 154.35ZM531.038 154.35C530.688 154.35 530.408 154.245 530.198 154.035C529.988 153.825 529.883 153.557 529.883 153.23V146.545C529.883 146.312 529.766 146.195 529.533 146.195H528.728C528.424 146.195 528.168 146.102 527.958 145.915C527.748 145.705 527.643 145.448 527.643 145.145C527.643 144.818 527.748 144.55 527.958 144.34C528.168 144.13 528.424 144.025 528.728 144.025H529.533C529.766 144.025 529.883 143.908 529.883 143.675V142.765C529.883 141.598 530.186 140.677 530.793 140C531.423 139.3 532.309 138.95 533.453 138.95C533.709 138.95 533.966 138.985 534.223 139.055C534.503 139.102 534.713 139.148 534.853 139.195C535.296 139.358 535.518 139.685 535.518 140.175C535.518 140.548 535.401 140.84 535.168 141.05C534.958 141.237 534.701 141.33 534.398 141.33C534.234 141.33 534.083 141.307 533.943 141.26C533.803 141.213 533.604 141.19 533.348 141.19C532.951 141.19 532.671 141.33 532.508 141.61C532.344 141.89 532.263 142.298 532.263 142.835V143.675C532.263 143.908 532.379 144.025 532.613 144.025H534.118C534.398 144.025 534.643 144.13 534.853 144.34C535.063 144.55 535.168 144.818 535.168 145.145C535.168 145.448 535.063 145.705 534.853 145.915C534.666 146.102 534.409 146.195 534.083 146.195H532.613C532.379 146.195 532.263 146.312 532.263 146.545V153.23C532.263 153.557 532.146 153.825 531.913 154.035C531.679 154.245 531.388 154.35 531.038 154.35ZM541.83 154.35C540.803 154.35 539.87 154.117 539.03 153.65C538.213 153.183 537.572 152.542 537.105 151.725C536.638 150.885 536.405 149.952 536.405 148.925C536.405 147.922 536.638 147.023 537.105 146.23C537.572 145.437 538.213 144.818 539.03 144.375C539.87 143.908 540.803 143.675 541.83 143.675C542.857 143.675 543.778 143.908 544.595 144.375C545.412 144.818 546.053 145.437 546.52 146.23C547.01 147.023 547.255 147.922 547.255 148.925C547.255 149.952 547.01 150.885 546.52 151.725C546.053 152.542 545.412 153.183 544.595 153.65C543.778 154.117 542.857 154.35 541.83 154.35ZM541.83 152.18C542.74 152.18 543.475 151.888 544.035 151.305C544.595 150.698 544.875 149.905 544.875 148.925C544.875 147.992 544.595 147.245 544.035 146.685C543.475 146.125 542.74 145.845 541.83 145.845C540.897 145.845 540.15 146.125 539.59 146.685C539.053 147.245 538.785 147.992 538.785 148.925C538.785 149.905 539.053 150.698 539.59 151.305C540.15 151.888 540.897 152.18 541.83 152.18ZM554.408 154.35C553.382 154.35 552.448 154.117 551.608 153.65C550.792 153.183 550.15 152.542 549.683 151.725C549.217 150.885 548.983 149.952 548.983 148.925C548.983 147.922 549.217 147.023 549.683 146.23C550.15 145.437 550.792 144.818 551.608 144.375C552.448 143.908 553.382 143.675 554.408 143.675C555.435 143.675 556.357 143.908 557.173 144.375C557.99 144.818 558.632 145.437 559.098 146.23C559.588 147.023 559.833 147.922 559.833 148.925C559.833 149.952 559.588 150.885 559.098 151.725C558.632 152.542 557.99 153.183 557.173 153.65C556.357 154.117 555.435 154.35 554.408 154.35ZM554.408 152.18C555.318 152.18 556.053 151.888 556.613 151.305C557.173 150.698 557.453 149.905 557.453 148.925C557.453 147.992 557.173 147.245 556.613 146.685C556.053 146.125 555.318 145.845 554.408 145.845C553.475 145.845 552.728 146.125 552.168 146.685C551.632 147.245 551.363 147.992 551.363 148.925C551.363 149.905 551.632 150.698 552.168 151.305C552.728 151.888 553.475 152.18 554.408 152.18ZM565.875 154.35C564.965 154.35 564.218 154.07 563.635 153.51C563.051 152.95 562.76 152.11 562.76 150.99V146.545C562.76 146.312 562.643 146.195 562.41 146.195H561.78C561.476 146.195 561.22 146.102 561.01 145.915C560.8 145.705 560.695 145.448 560.695 145.145C560.695 144.818 560.8 144.55 561.01 144.34C561.22 144.13 561.476 144.025 561.78 144.025H562.41C562.643 144.025 562.76 143.908 562.76 143.675V140.735C562.76 140.408 562.865 140.152 563.075 139.965C563.308 139.755 563.588 139.65 563.915 139.65C564.265 139.65 564.545 139.755 564.755 139.965C564.988 140.152 565.105 140.408 565.105 140.735V143.675C565.105 143.908 565.221 144.025 565.455 144.025H567.345C567.625 144.025 567.87 144.13 568.08 144.34C568.29 144.55 568.395 144.818 568.395 145.145C568.395 145.448 568.29 145.705 568.08 145.915C567.893 146.102 567.636 146.195 567.31 146.195H565.455C565.221 146.195 565.105 146.312 565.105 146.545V150.675C565.105 151.655 565.501 152.145 566.295 152.145C566.528 152.145 566.773 152.11 567.03 152.04C567.286 151.97 567.461 151.935 567.555 151.935C567.881 151.935 568.126 152.04 568.29 152.25C568.476 152.46 568.57 152.705 568.57 152.985C568.57 153.195 568.511 153.405 568.395 153.615C568.278 153.802 568.091 153.942 567.835 154.035C567.578 154.128 567.251 154.198 566.855 154.245C566.481 154.315 566.155 154.35 565.875 154.35ZM575.788 154.35C575.134 154.35 574.551 154.233 574.038 154C573.524 153.79 573.081 153.498 572.708 153.125V157.99C572.708 158.34 572.579 158.608 572.323 158.795C572.089 158.982 571.821 159.075 571.518 159.075C571.214 159.075 570.934 158.982 570.678 158.795C570.444 158.608 570.328 158.34 570.328 157.99V145.04C570.328 144.643 570.444 144.352 570.678 144.165C570.934 143.955 571.214 143.85 571.518 143.85C571.798 143.85 572.054 143.943 572.288 144.13C572.521 144.293 572.661 144.538 572.708 144.865C573.081 144.515 573.524 144.235 574.038 144.025C574.551 143.792 575.134 143.675 575.788 143.675C576.814 143.675 577.713 143.908 578.483 144.375C579.276 144.818 579.894 145.437 580.338 146.23C580.781 147.023 581.003 147.922 581.003 148.925C581.003 149.952 580.781 150.885 580.338 151.725C579.894 152.542 579.276 153.183 578.483 153.65C577.713 154.117 576.814 154.35 575.788 154.35ZM575.578 152.18C576.488 152.18 577.223 151.888 577.783 151.305C578.343 150.698 578.623 149.905 578.623 148.925C578.623 147.992 578.343 147.245 577.783 146.685C577.223 146.125 576.488 145.845 575.578 145.845C574.691 145.845 573.991 146.125 573.478 146.685C572.964 147.245 572.708 147.992 572.708 148.925C572.708 149.905 572.964 150.698 573.478 151.305C573.991 151.888 574.691 152.18 575.578 152.18ZM585.491 148.82V153.265C585.491 153.615 585.363 153.883 585.106 154.07C584.873 154.257 584.604 154.35 584.301 154.35C583.998 154.35 583.718 154.257 583.461 154.07C583.228 153.883 583.111 153.615 583.111 153.265V145.04C583.111 144.643 583.228 144.352 583.461 144.165C583.718 143.955 583.998 143.85 584.301 143.85C584.604 143.85 584.873 143.955 585.106 144.165C585.363 144.352 585.491 144.643 585.491 145.04V145.18C585.818 144.737 586.238 144.375 586.751 144.095C587.288 143.815 587.848 143.675 588.431 143.675C588.711 143.675 588.991 143.71 589.271 143.78C589.551 143.85 589.761 143.99 589.901 144.2C590.041 144.41 590.111 144.643 590.111 144.9C590.111 145.203 590.006 145.483 589.796 145.74C589.609 145.973 589.329 146.09 588.956 146.09C588.793 146.09 588.618 146.067 588.431 146.02C588.268 145.973 588.058 145.95 587.801 145.95C587.124 145.95 586.564 146.207 586.121 146.72C585.701 147.233 585.491 147.933 585.491 148.82ZM592.915 154.35C592.612 154.35 592.332 154.257 592.075 154.07C591.842 153.883 591.725 153.615 591.725 153.265V144.865C591.725 144.468 591.842 144.177 592.075 143.99C592.332 143.78 592.612 143.675 592.915 143.675C593.218 143.675 593.487 143.78 593.72 143.99C593.977 144.177 594.105 144.468 594.105 144.865V153.265C594.105 153.615 593.977 153.883 593.72 154.07C593.487 154.257 593.218 154.35 592.915 154.35ZM592.95 141.75C592.507 141.75 592.122 141.61 591.795 141.33C591.492 141.027 591.34 140.665 591.34 140.245C591.34 139.848 591.492 139.51 591.795 139.23C592.122 138.927 592.507 138.775 592.95 138.775C593.37 138.775 593.732 138.927 594.035 139.23C594.338 139.51 594.49 139.848 594.49 140.245C594.49 140.665 594.338 141.027 594.035 141.33C593.732 141.61 593.37 141.75 592.95 141.75ZM605.739 154.35C605.435 154.35 605.155 154.257 604.899 154.07C604.665 153.883 604.549 153.615 604.549 153.265V148.855C604.549 147.828 604.315 147.07 603.849 146.58C603.405 146.09 602.81 145.845 602.064 145.845C601.107 145.845 600.407 146.16 599.964 146.79C599.544 147.397 599.334 148.073 599.334 148.82V153.265C599.334 153.615 599.205 153.883 598.949 154.07C598.715 154.257 598.447 154.35 598.144 154.35C597.84 154.35 597.56 154.257 597.304 154.07C597.07 153.883 596.954 153.615 596.954 153.265V145.04C596.954 144.643 597.07 144.352 597.304 144.165C597.56 143.955 597.84 143.85 598.144 143.85C598.447 143.85 598.715 143.955 598.949 144.165C599.205 144.352 599.334 144.643 599.334 145.04C599.73 144.643 600.244 144.317 600.874 144.06C601.504 143.803 602.099 143.675 602.659 143.675C603.965 143.675 605.004 144.095 605.774 144.935C606.544 145.775 606.929 147.012 606.929 148.645V153.265C606.929 153.615 606.8 153.883 606.544 154.07C606.287 154.257 606.019 154.35 605.739 154.35ZM613.521 154.35C612.611 154.35 611.864 154.07 611.281 153.51C610.698 152.95 610.406 152.11 610.406 150.99V146.545C610.406 146.312 610.289 146.195 610.056 146.195H609.426C609.123 146.195 608.866 146.102 608.656 145.915C608.446 145.705 608.341 145.448 608.341 145.145C608.341 144.818 608.446 144.55 608.656 144.34C608.866 144.13 609.123 144.025 609.426 144.025H610.056C610.289 144.025 610.406 143.908 610.406 143.675V140.735C610.406 140.408 610.511 140.152 610.721 139.965C610.954 139.755 611.234 139.65 611.561 139.65C611.911 139.65 612.191 139.755 612.401 139.965C612.634 140.152 612.751 140.408 612.751 140.735V143.675C612.751 143.908 612.868 144.025 613.101 144.025H614.991C615.271 144.025 615.516 144.13 615.726 144.34C615.936 144.55 616.041 144.818 616.041 145.145C616.041 145.448 615.936 145.705 615.726 145.915C615.539 146.102 615.283 146.195 614.956 146.195H613.101C612.868 146.195 612.751 146.312 612.751 146.545V150.675C612.751 151.655 613.148 152.145 613.941 152.145C614.174 152.145 614.419 152.11 614.676 152.04C614.933 151.97 615.108 151.935 615.201 151.935C615.528 151.935 615.773 152.04 615.936 152.25C616.123 152.46 616.216 152.705 616.216 152.985C616.216 153.195 616.158 153.405 616.041 153.615C615.924 153.802 615.738 153.942 615.481 154.035C615.224 154.128 614.898 154.198 614.501 154.245C614.128 154.315 613.801 154.35 613.521 154.35Z" fill="#16C172"/>
</svg>
